HIERARCHY
ROOT root
{
	OFFSET 0.000000 0.000000 0.000000
	CHANNELS 6 Xposition Yposition Zposition Zrotation Yrotation Xrotation
	JOINT lhip
	{
		OFFSET 0.058581 -0.082280 -0.017664
		CHANNELS 3 Zrotation Yrotation Xrotation
		JOINT lknee
		{
			OFFSET 0.043451 -0.386469 0.008037
			CHANNELS 3 Zrotation Yrotation Xrotation
			JOINT lankle
			{
				OFFSET -0.014790 -0.426874 -0.037428
				CHANNELS 3 Zrotation Yrotation Xrotation
				JOINT ltoe
				{
					OFFSET 0.041054 -0.060286 0.122042
					CHANNELS 3 Zrotation Yrotation Xrotation
					End Site
					{
						OFFSET 0.000000 0.000000 0.000000
					}
				}
			}
		}
	}
	JOINT rhip
	{
		OFFSET -0.060310 -0.090513 -0.013543
		CHANNELS 3 Zrotation Yrotation Xrotation
		JOINT rknee
		{
			OFFSET -0.043257 -0.383688 -0.004843
			CHANNELS 3 Zrotation Yrotation Xrotation
			JOINT rankle
			{
				OFFSET 0.019056 -0.420046 -0.034562
				CHANNELS 3 Zrotation Yrotation Xrotation
				JOINT rtoe
				{
					OFFSET -0.034840 -0.062106 0.130323
					CHANNELS 3 Zrotation Yrotation Xrotation
					End Site
					{
						OFFSET 0.000000 0.000000 0.000000
					}
				}
			}
		}
	}
	JOINT lowerback
	{
		OFFSET 0.004439 0.124404 -0.038385
		CHANNELS 3 Zrotation Yrotation Xrotation
		JOINT upperback
		{
			OFFSET 0.004488 0.137956 0.026820
			CHANNELS 3 Zrotation Yrotation Xrotation
			JOINT chest
			{
				OFFSET -0.002265 0.056032 0.002855
				CHANNELS 3 Zrotation Yrotation Xrotation
				JOINT lowerneck
				{
					OFFSET -0.013390 0.211636 -0.033468
					CHANNELS 3 Zrotation Yrotation Xrotation
					JOINT upperneck
					{
						OFFSET 0.010113 0.088937 0.050410
						CHANNELS 3 Zrotation Yrotation Xrotation
						End Site
						{
							OFFSET 0.000000 0.000000 0.000000
						}
					}
				}
				JOINT lclavicle
				{
					OFFSET 0.071702 0.114000 -0.018898
					CHANNELS 3 Zrotation Yrotation Xrotation
					JOINT lshoulder
					{
						OFFSET 0.122921 0.045205 -0.019046
						CHANNELS 3 Zrotation Yrotation Xrotation
						JOINT lelbow
						{
							OFFSET 0.255332 -0.015649 -0.022946
							CHANNELS 3 Zrotation Yrotation Xrotation
							JOINT lwrist
							{
								OFFSET 0.265709 0.012698 -0.007375
								CHANNELS 3 Zrotation Yrotation Xrotation
								End Site
								{
									OFFSET 0.000000 0.000000 0.000000
								}
							}
						}
					}
				}
				JOINT rclavicle
				{
					OFFSET -0.082954 0.112472 -0.023707
					CHANNELS 3 Zrotation Yrotation Xrotation
					JOINT rshoulder
					{
						OFFSET -0.113228 0.046853 -0.008472
						CHANNELS 3 Zrotation Yrotation Xrotation
						JOINT relbow
						{
							OFFSET -0.260127 -0.014369 -0.031269
							CHANNELS 3 Zrotation Yrotation Xrotation
							JOINT rwrist
							{
								OFFSET -0.269108 0.006794 -0.006027
								CHANNELS 3 Zrotation Yrotation Xrotation
								End Site
								{
									OFFSET 0.000000 0.000000 0.000000
								}
							}
						}
					}
				}
			}
		}
	}
}
MOTION
Frames: 18
Frame Time: 0.033333
1.753701 0.636971 0.987632 -86.445800 2.922813 84.707184 1.982477 -0.535384 7.944580 -2.166580 -13.100920 3.627091 6.375582 10.533206 -19.027199 0.000000 -0.000000 0.000000 3.306032 -4.230250 4.916417 3.337940 1.574092 7.120930 2.930162 -4.999423 -14.259089 0.000000 -0.000000 0.000000 -1.953847 2.228640 4.403473 2.587483 -1.511934 3.585718 1.345381 -0.938151 6.343619 5.445022 -1.903207 12.897338 1.919946 -4.718115 16.414571 -24.444277 7.122678 1.811729 -63.447866 -10.860792 9.441187 12.910315 -35.399046 2.576142 -0.861805 -1.830130 -10.531788 23.348227 -6.083247 1.458068 61.913233 1.128148 10.038724 -15.956418 20.725800 -4.225429 7.003546 -1.081468 -6.596696 
1.753091 0.636638 0.987731 -86.683004 2.922036 84.880386 1.960223 -0.439812 7.908417 -2.126614 -12.950014 3.466236 6.379849 10.507667 -19.042706 0.000000 -0.000000 0.000000 3.204538 -4.286164 4.819181 3.419220 1.635202 7.042792 3.061270 -4.710596 -14.109909 0.000000 -0.000000 0.000000 -1.900797 2.170201 4.481986 2.584947 -1.578557 3.290872 1.332103 -0.993931 6.367418 5.514933 -1.981890 12.453886 1.774606 -4.795557 16.212252 -24.179867 7.105012 1.588567 -63.689663 -10.785376 9.805141 12.686860 -36.362948 3.182392 -0.669241 -2.038120 -10.653683 23.166228 -6.100865 1.110541 62.037166 1.216465 10.202844 -16.132415 21.764916 -4.275630 6.859094 -0.638003 -6.789866 
1.752597 0.636504 0.987830 -86.956969 3.021022 84.981728 2.067018 -0.358530 7.902369 -2.127928 -12.788464 3.386103 6.354642 10.486676 -19.028942 0.000000 -0.000000 0.000000 3.333076 -4.151307 4.790972 3.356022 1.594749 6.893591 3.019739 -4.592631 -14.116716 0.000000 -0.000000 0.000000 -1.831542 2.078553 4.519172 2.607571 -1.643679 3.236153 1.403942 -0.965743 6.228712 5.441284 -1.690240 12.394834 1.749192 -4.584099 16.034841 -24.093344 6.858890 1.674708 -63.806471 -10.694426 9.949045 12.522736 -36.743696 3.571337 -0.626597 -2.137484 -10.598936 23.080136 -5.897709 1.151236 62.049881 1.570194 10.208551 -16.356653 22.712897 -4.412239 6.757709 -0.641983 -7.069640 
1.752184 0.636515 0.987578 -87.500547 2.973643 85.356535 1.971149 -0.256119 7.634375 -2.102596 -12.416449 3.282283 6.333066 10.591138 -19.011898 0.000000 -0.000000 0.000000 3.199961 -3.762781 4.377043 3.491553 1.562243 6.879245 3.090002 -4.402507 -13.950051 0.000000 -0.000000 0.000000 -1.862739 2.158236 4.268325 2.616089 -1.597060 3.126918 1.443028 -0.988301 6.205351 5.421265 -1.479450 12.126387 1.621886 -4.397777 15.806343 -24.045443 6.664583 1.667375 -63.996150 -10.513062 10.103952 12.333289 -36.268037 3.858848 -0.674443 -2.346730 -10.330765 23.082721 -5.873789 1.035867 62.062470 2.218696 10.289273 -16.457276 23.472393 -4.900736 6.544135 -0.061611 -7.678621 
1.750450 0.636245 0.987806 -87.188966 3.138029 85.099109 2.127903 -0.187834 8.067646 -2.000015 -12.645091 3.222833 6.405548 10.419990 -19.138476 0.000000 -0.000000 0.000000 3.376332 -4.296750 4.933471 3.352449 1.699820 6.613787 2.995815 -4.293367 -13.984075 0.000000 -0.000000 0.000000 -1.693615 1.940479 4.421477 2.617897 -1.865391 3.277124 1.446088 -1.060863 6.016980 5.330462 -1.422221 12.458003 1.685589 -4.143377 15.728409 -23.990244 6.373557 1.938520 -64.123520 -10.235656 9.975065 12.327956 -35.656082 4.025459 -0.778320 -2.105533 -10.162559 22.954107 -5.630936 1.150912 62.188321 2.261445 10.107501 -16.509202 23.986046 -4.884494 6.728931 -0.091150 -7.872443 
1.749292 0.635866 0.987638 -87.369931 3.224183 85.222650 2.214976 -0.102873 8.000577 -2.022406 -12.464764 3.264545 6.359940 10.352015 -19.177746 0.000000 -0.000000 0.000000 3.406551 -4.511958 4.867404 3.396252 1.939156 6.501437 2.948283 -4.088264 -13.891388 0.000000 -0.000000 0.000000 -1.588916 1.965581 4.150262 2.684910 -1.944944 3.468686 1.438756 -1.065454 5.888435 5.331887 -1.352428 12.419941 1.678615 -4.040109 15.527794 -24.064973 6.184270 2.058528 -64.210044 -9.893037 9.835471 12.243429 -34.294733 4.277805 -1.243760 -2.262317 -9.911374 22.787031 -5.453863 1.233700 62.417586 2.586204 10.130527 -16.663149 24.138311 -4.693579 6.844926 -0.282415 -7.929360 
1.750506 0.635533 0.987072 -88.112319 2.850322 85.884620 1.664509 -0.276735 7.291059 -2.014114 -11.990224 3.210469 6.754030 10.848943 -18.975178 0.000000 -0.000000 0.000000 3.097687 -3.513346 3.588078 3.401994 1.751009 7.301693 2.853773 -4.176343 -14.056169 0.000000 -0.000000 0.000000 -1.902167 2.264745 3.835072 2.597632 -1.663727 3.010244 1.446801 -1.045890 6.004529 5.531945 -1.428312 12.243402 1.617264 -4.022014 15.279938 -24.036057 6.357783 2.090193 -64.385270 -9.563119 9.781528 12.110077 -32.975709 4.436978 -1.619635 -1.840088 -9.582437 22.787911 -5.396019 1.323720 62.647739 2.764927 10.480928 -16.977203 24.228512 -4.551437 6.895103 -0.339679 -7.953231 
1.749267 0.635309 0.987202 -88.008764 2.936884 85.725441 1.717832 -0.230089 7.516868 -1.945809 -12.045677 3.256656 6.615525 10.800585 -19.030348 0.000000 -0.000000 0.000000 3.148388 -3.480283 4.079949 3.449595 1.778953 6.883575 2.849812 -4.317989 -13.931344 0.000000 -0.000000 0.000000 -1.796697 2.247396 3.954819 2.622045 -1.721606 3.227638 1.467623 -1.181597 5.935981 5.606241 -1.538121 11.875059 1.542018 -3.988485 14.943453 -24.249427 6.403199 2.208262 -64.354478 -9.098079 9.490266 11.947024 -31.777268 4.393715 -1.790157 -1.566100 -9.410976 22.891737 -5.333579 1.280121 62.487853 2.819845 10.520053 -16.910446 24.609563 -4.601493 6.778273 -0.179209 -8.022307 
1.747924 0.635174 0.986963 -88.043214 2.931911 85.532773 1.745853 -0.002653 7.817891 -1.990156 -12.197034 3.259669 6.605529 10.788177 -19.157561 0.000000 -0.000000 0.000000 3.066997 -3.737790 4.351128 3.492941 1.962637 6.925068 2.766583 -4.257935 -14.050261 0.000000 -0.000000 0.000000 -1.711792 2.202281 4.270499 2.536437 -1.761106 3.216683 1.459154 -1.165020 5.903920 5.681859 -1.479150 11.518832 1.557304 -3.867596 14.647114 -24.293141 6.690368 2.287721 -64.327397 -8.448026 9.132029 11.606102 -30.652854 4.586841 -2.150274 -1.446374 -9.775824 22.893576 -5.394165 1.156513 62.530941 2.754951 10.461109 -16.817359 24.837082 -4.598230 6.709816 -0.107775 -8.205857 
1.745541 0.635083 0.987019 -87.422755 3.194593 85.430918 2.073515 0.067071 7.921383 -2.004559 -12.500071 3.542405 6.386958 10.460749 -19.320993 0.000000 -0.000000 0.000000 3.377661 -4.164448 4.792151 3.399300 2.008992 6.663650 2.685525 -4.431996 -14.106848 0.000000 -0.000000 0.000000 -1.484800 1.835577 4.551696 2.541682 -2.016323 3.017745 1.535412 -1.220576 5.674586 5.985693 -0.597201 11.239744 1.581469 -2.882048 14.603582 -24.455975 6.970312 2.673263 -64.191991 -7.530510 8.676815 11.282997 -28.980755 4.772785 -2.322231 -1.542227 -9.496857 22.930877 -5.506229 1.395100 62.414067 2.643204 10.345462 -16.629040 24.760677 -4.528129 6.438407 0.236430 -8.333060 
1.743363 0.634750 0.986923 -87.241144 3.185438 85.220843 2.108922 0.286963 8.361622 -2.028639 -12.801593 3.402661 6.355000 10.395002 -19.467478 0.000000 -0.000000 0.000000 3.313679 -4.124723 5.248413 3.455442 1.996311 6.587050 2.764601 -4.539759 -14.165711 0.000000 -0.000000 0.000000 -1.411150 1.820492 4.464476 2.479701 -2.025033 3.331964 1.503942 -1.236982 5.742612 6.064860 -0.487044 11.001719 1.725803 -2.830190 14.473864 -24.495768 6.932102 2.874893 -64.087804 -6.982223 8.421162 11.143591 -27.535889 4.985001 -2.159782 -1.188981 -9.097629 22.998244 -5.591472 1.428646 62.386182 2.528882 10.223146 -16.375719 24.573524 -4.267814 6.356390 -0.051801 -8.205625 
1.743085 0.634828 0.986755 -87.274943 3.099289 85.406965 2.023969 0.252218 8.068547 -2.108859 -12.706797 3.602314 6.333459 10.470584 -19.532428 0.000000 -0.000000 0.000000 3.289136 -3.919337 4.888501 3.447415 1.943204 6.864621 2.658799 -4.728092 -14.341163 0.000000 -0.000000 0.000000 -1.528360 1.902649 4.448227 2.484079 -1.918456 3.155026 1.521558 -1.234221 5.823805 6.187084 -0.327821 10.597472 1.761865 -2.898038 14.537112 -24.543686 7.101615 2.827313 -63.980720 -6.555198 8.291334 10.961936 -25.888646 5.202943 -2.283236 -1.361208 -8.790982 23.126756 -5.709368 1.490267 62.359133 2.494546 10.345398 -16.224845 24.160254 -4.058453 6.400150 -0.104450 -8.251830 
1.742103 0.635031 0.986636 -86.993037 3.193200 85.403821 2.191435 0.280714 8.083430 -2.157603 -12.840226 3.690063 6.268942 10.330212 -19.635812 0.000000 -0.000000 0.000000 3.439578 -3.970991 5.072514 3.423078 2.004718 6.664590 2.626283 -4.931246 -14.303553 0.000000 -0.000000 0.000000 -1.508662 1.929003 4.364016 2.555044 -1.968206 3.312373 1.568820 -1.285896 5.901231 6.324828 -0.348013 10.101653 1.734782 -3.022622 14.347735 -24.680540 7.069917 2.837233 -63.907705 -6.367118 8.094365 10.979150 -24.109599 5.203089 -2.555664 -1.374282 -8.474047 23.302993 -5.705836 1.413101 62.158002 2.537542 10.320711 -16.031254 23.734795 -4.211482 6.278768 0.208868 -8.443744 
1.742697 0.635325 0.986034 -87.397265 2.996222 85.853979 1.919173 0.149440 7.592197 -2.166056 -12.575390 3.689696 6.443396 10.692046 -19.555134 0.000000 -0.000000 0.000000 3.299702 -3.352722 4.115786 3.477621 1.868012 7.407426 2.553367 -4.986930 -14.491654 0.000000 -0.000000 0.000000 -1.714218 2.262679 4.095511 2.535109 -1.684340 3.037171 1.604099 -1.271453 5.998178 6.416671 -0.524248 10.004929 1.818154 -3.240081 14.222154 -24.551123 7.196221 2.985835 -63.959922 -6.198283 7.899931 10.975357 -22.751364 5.010820 -2.784187 -1.121423 -8.320367 23.134447 -5.733526 1.429561 62.512623 2.310711 10.464563 -16.148703 23.099169 -3.784754 6.582699 -0.273244 -8.311399 
1.742128 0.635215 0.986037 -87.488153 2.893224 85.882802 1.781229 0.174346 7.687789 -2.152793 -12.619931 3.549943 6.578968 10.876477 -19.518500 0.000000 -0.000000 0.000000 3.162105 -3.245598 4.124367 3.535802 1.914269 7.399914 2.496277 -5.055715 -14.553588 0.000000 -0.000000 0.000000 -1.724182 2.360435 4.132943 2.470804 -1.536428 2.962109 1.594641 -1.252350 5.994345 6.535337 -0.594840 10.237330 1.941624 -3.143566 14.138363 -24.577171 7.349593 3.036701 -63.829946 -5.943865 7.663800 10.957640 -21.848394 4.884917 -2.932174 -0.963755 -8.288948 23.148966 -5.766398 1.554732 62.543787 2.298554 10.474081 -15.947885 22.601755 -3.443768 6.768585 -0.766274 -8.036285 
1.741291 0.635498 0.985942 -87.130536 2.965629 85.825386 1.945348 0.186108 7.750582 -2.202650 -12.821113 3.611791 6.522854 10.712575 -19.591243 0.000000 -0.000000 0.000000 3.221259 -3.477171 4.443949 3.557433 1.895165 7.126910 2.554948 -5.154635 -14.382131 0.000000 -0.000000 0.000000 -1.697845 2.381726 4.209303 2.554508 -1.586712 3.002533 1.665634 -1.376738 5.903805 6.457908 -0.768047 10.343702 2.066963 -3.143445 14.017158 -24.620002 7.409375 3.231498 -63.792920 -5.783094 7.429354 11.116314 -21.198807 4.654779 -2.895093 -0.953799 -8.452302 23.030310 -5.843520 1.587637 62.506372 2.156825 10.253017 -15.954933 22.141071 -3.546465 6.597127 -0.561687 -8.205091 
1.741801 0.636011 0.985661 -87.312016 2.870781 86.108145 1.839648 0.110511 7.441429 -2.194613 -12.701039 3.558626 6.515470 10.901270 -19.529719 0.000000 -0.000000 0.000000 3.170230 -3.160450 3.914629 3.607778 1.796304 7.416165 2.490653 -5.206740 -14.486376 0.000000 -0.000000 0.000000 -1.786696 2.489617 4.190768 2.547877 -1.446919 2.801211 1.694748 -1.288792 5.908170 6.544670 -1.095854 10.105275 2.005600 -3.536630 13.865395 -24.539051 7.540455 3.215205 -63.717825 -5.600160 7.429160 11.105737 -20.954536 4.841648 -3.115375 -0.732027 -8.204486 23.014253 -5.875866 1.517810 62.615995 2.187004 10.334866 -15.868319 21.806241 -3.093701 6.662875 -1.185547 -7.697410 
1.741323 0.636498 0.985621 -87.065104 2.889329 86.164371 1.941508 0.044738 7.376079 -2.235221 -12.780727 3.601818 6.485674 10.738841 -19.540526 0.000000 -0.000000 0.000000 3.214238 -3.275580 4.007449 3.615577 1.701772 7.199853 2.519832 -5.209863 -14.485481 0.000000 -0.000000 0.000000 -1.789642 2.478103 4.243693 2.558168 -1.523413 2.695106 1.734750 -1.255488 5.863369 6.548785 -0.949330 10.287812 2.047759 -3.314003 13.910211 -24.462096 7.554195 3.327049 -63.687890 -5.599839 7.362275 11.189585 -20.748242 4.767720 -3.138078 -0.864970 -8.266630 22.870179 -5.999867 1.596831 62.713812 1.998263 10.234120 -16.001232 21.745004 -3.388706 6.671506 -0.602195 -8.269293 
